<svg width="1280" height="1080" viewBox="0 0 1280 1080" fill="none" xmlns="http://www.w3.org/2000/svg">
<g opacity="0.6" filter="url(#filter0_f_3_77)">
<ellipse cx="88.4995" cy="610" rx="578.5" ry="386" fill="#70B60E"/>
</g>
<g opacity="0.6" filter="url(#filter1_f_3_77)">
<circle cx="-146.001" cy="846.21" r="386" fill="#0DF7FF"/>
</g>
<g filter="url(#filter2_f_3_77)">
<path d="M155.341 644.088C-33.2946 642.56 -282.263 721.988 -250.188 1184.81C275.753 1215.87 1335.58 1277.37 1367.35 1274.93C1407.06 1271.87 1711.78 863.278 1723.23 851.822C1734.69 840.366 1785.86 736.499 1457.46 469.193C1129.07 201.887 851.844 407.522 659.389 542.511C466.935 677.501 343.977 645.615 155.341 644.088Z" fill="#5733E5"/>
</g>
<mask id="mask0_3_77" style="mask-type:alpha" maskUnits="userSpaceOnUse" x="521" y="365" width="854" height="741">
<ellipse cx="420.069" cy="735.343" rx="484.544" ry="289.781" transform="rotate(-36.2854 948.074 735.343)" fill="url(#paint0_radial_3_77)"/>
</mask>
<g mask="url(#mask0_3_77)">
<path d="M545.486 1030.72C485.038 1053.92 471.756 1077.69 436 1133.39L1017.84 1349.55C1166.09 1123.99 1423.05 692.044 1321.02 651.209C1214.25 608.479 1051.49 626.277 951.666 675.189C851.846 724.102 771.403 887.403 733.611 945.522C698.597 999.367 605.934 1007.52 545.486 1030.72Z" fill="#7C7AEA"/>
<g filter="url(#filter3_f_3_77)">
<path d="M545.486 1029.72C485.038 1052.92 471.756 1076.69 436 1132.39L1017.84 1348.55C1166.09 1122.99 1386.53 625.317 1284.5 584.481C1203.82 552.191 1057.17 629.805 982 674.403C957.698 688.821 974.895 705.161 959.666 706.189C848.759 713.675 771.403 886.403 733.611 944.522C698.597 998.367 605.934 1006.52 545.486 1029.72Z" fill="#7C7AEA"/>
</g>
<g filter="url(#filter4_f_3_77)">
<path d="M529.486 1022.72C469.038 1045.92 455.756 1069.69 420 1125.39L1017.84 1349.55C1166.09 1123.99 1295.05 668.044 1193.02 627.209C1097.31 588.905 1041.89 634.383 964.5 678.828C955.559 683.962 970.004 686.123 959.666 691.189C859.846 740.102 755.403 879.403 717.611 937.522C682.597 991.367 589.934 999.521 529.486 1022.72Z" fill="#7C7AEA"/>
</g>
<g filter="url(#filter5_f_3_77)">
<path d="M513.486 1014.72C453.038 1037.92 439.756 1061.69 404 1117.39L1017.84 1349.55C1166.09 1123.99 1447.05 612.044 1345.02 571.209C1258.9 536.743 1106.55 620.476 1012 657.388C989.33 666.238 975.97 683.73 956.666 693.189C856.846 742.102 739.403 871.403 701.611 929.522C666.597 983.367 573.934 991.521 513.486 1014.72Z" fill="#7C7AEA"/>
</g>
<g filter="url(#filter6_f_3_77)">
<path d="M462.486 992.872C402.038 1016.07 388.756 1039.84 353 1095.54L982.836 1343.7C1131.09 1118.14 1260.05 662.195 1158.02 621.36C1078.88 589.689 1018.71 654.853 981 678.282C967.831 686.463 1005.6 700.481 977 700.481C866.5 700.481 887.389 816.791 705.5 893.481C646.317 918.435 522.934 969.671 462.486 992.872Z" fill="#7C7AEA"/>
</g>
</g>
<g opacity="0.6" filter="url(#filter7_f_3_77)">
<circle cx="1128.5" cy="899.5" r="164.5" fill="#B819F0"/>
</g>
<g opacity="0.3" filter="url(#filter8_f_3_77)">
<ellipse cx="352.5" cy="835.71" rx="368.5" ry="164.5" fill="black"/>
</g>
<g opacity="0.6" filter="url(#filter9_f_3_77)">
<ellipse cx="696.804" cy="788.291" rx="164.5" ry="48.7174" transform="rotate(-41.2443 696.804 788.291)" fill="#28009B"/>
</g>
<defs>
<filter id="filter0_f_3_77" x="-902" y="-188" width="1981" height="1596" filterUnits="userSpaceOnUse" color-interpolation-filters="sRGB">
<feFlood flood-opacity="0" result="BackgroundImageFix"/>
<feBlend mode="normal" in="SourceGraphic" in2="BackgroundImageFix" result="shape"/>
<feGaussianBlur stdDeviation="206" result="effect1_foregroundBlur_3_77"/>
</filter>
<filter id="filter1_f_3_77" x="-944.001" y="48.2102" width="1596" height="1596" filterUnits="userSpaceOnUse" color-interpolation-filters="sRGB">
<feFlood flood-opacity="0" result="BackgroundImageFix"/>
<feBlend mode="normal" in="SourceGraphic" in2="BackgroundImageFix" result="shape"/>
<feGaussianBlur stdDeviation="206" result="effect1_foregroundBlur_3_77"/>
</filter>
<filter id="filter2_f_3_77" x="-409" y="183" width="2298" height="1248" filterUnits="userSpaceOnUse" color-interpolation-filters="sRGB">
<feFlood flood-opacity="0" result="BackgroundImageFix"/>
<feBlend mode="normal" in="SourceGraphic" in2="BackgroundImageFix" result="shape"/>
<feGaussianBlur stdDeviation="78" result="effect1_foregroundBlur_3_77"/>
</filter>
<filter id="filter3_f_3_77" x="416" y="556.832" width="914.56" height="811.722" filterUnits="userSpaceOnUse" color-interpolation-filters="sRGB">
<feFlood flood-opacity="0" result="BackgroundImageFix"/>
<feBlend mode="normal" in="SourceGraphic" in2="BackgroundImageFix" result="shape"/>
<feGaussianBlur stdDeviation="10" result="effect1_foregroundBlur_3_77"/>
</filter>
<filter id="filter4_f_3_77" x="392" y="584.829" width="865.541" height="792.724" filterUnits="userSpaceOnUse" color-interpolation-filters="sRGB">
<feFlood flood-opacity="0" result="BackgroundImageFix"/>
<feBlend mode="normal" in="SourceGraphic" in2="BackgroundImageFix" result="shape"/>
<feGaussianBlur stdDeviation="14" result="effect1_foregroundBlur_3_77"/>
</filter>
<filter id="filter5_f_3_77" x="368" y="527.061" width="1034.83" height="858.493" filterUnits="userSpaceOnUse" color-interpolation-filters="sRGB">
<feFlood flood-opacity="0" result="BackgroundImageFix"/>
<feBlend mode="normal" in="SourceGraphic" in2="BackgroundImageFix" result="shape"/>
<feGaussianBlur stdDeviation="18" result="effect1_foregroundBlur_3_77"/>
</filter>
<filter id="filter6_f_3_77" x="301" y="560.844" width="945.541" height="834.86" filterUnits="userSpaceOnUse" color-interpolation-filters="sRGB">
<feFlood flood-opacity="0" result="BackgroundImageFix"/>
<feBlend mode="normal" in="SourceGraphic" in2="BackgroundImageFix" result="shape"/>
<feGaussianBlur stdDeviation="26" result="effect1_foregroundBlur_3_77"/>
</filter>
<filter id="filter7_f_3_77" x="752" y="523" width="753" height="753" filterUnits="userSpaceOnUse" color-interpolation-filters="sRGB">
<feFlood flood-opacity="0" result="BackgroundImageFix"/>
<feBlend mode="normal" in="SourceGraphic" in2="BackgroundImageFix" result="shape"/>
<feGaussianBlur stdDeviation="106" result="effect1_foregroundBlur_3_77"/>
</filter>
<filter id="filter8_f_3_77" x="-228" y="459.21" width="1161" height="753" filterUnits="userSpaceOnUse" color-interpolation-filters="sRGB">
<feFlood flood-opacity="0" result="BackgroundImageFix"/>
<feBlend mode="normal" in="SourceGraphic" in2="BackgroundImageFix" result="shape"/>
<feGaussianBlur stdDeviation="106" result="effect1_foregroundBlur_3_77"/>
</filter>
<filter id="filter9_f_3_77" x="356.983" y="461.791" width="679.643" height="653.001" filterUnits="userSpaceOnUse" color-interpolation-filters="sRGB">
<feFlood flood-opacity="0" result="BackgroundImageFix"/>
<feBlend mode="normal" in="SourceGraphic" in2="BackgroundImageFix" result="shape"/>
<feGaussianBlur stdDeviation="106" result="effect1_foregroundBlur_3_77"/>
</filter>
<radialGradient id="paint0_radial_3_77" cx="0" cy="0" r="1" gradientTransform="matrix(-83.0416 336.183 -562.032 -48.5614 1031.12 688.94)" gradientUnits="userSpaceOnUse">
<stop offset="0.120131" stop-color="#C4C4C4"/>
<stop offset="0.692585" stop-color="#C4C4C4" stop-opacity="0"/>
</radialGradient>
</defs>
</svg>
