<svg width="90" height="90" viewBox="0 0 90 90" fill="none" xmlns="http://www.w3.org/2000/svg">
<g clip-path="url(#clip0_3_260)">
<path d="M81.4359 51.4407H77.1328V72.8719H81.4359V51.4407Z" fill="#BFFB4F"/>
<path d="M77.1328 72.8718H72.8578V81.4218H77.1328V72.8718Z" fill="#BFFB4F"/>
<path d="M77.1328 42.8625H72.8578V51.4407H77.1328V42.8625Z" fill="#BFFB4F"/>
<path d="M72.8579 38.5874H68.5829V42.8624H72.8579V38.5874Z" fill="#BFFB4F"/>
<path d="M72.8578 81.4219H64.2797V85.725H72.8578V81.4219Z" fill="#BFFB4F"/>
<path d="M68.5828 34.2844H64.2797V38.5876H68.5828V34.2844Z" fill="#BFFB4F"/>
<path d="M64.2798 12.8531H68.5829V0H60.0048V4.275H64.2798V12.8531Z" fill="#BFFB4F"/>
<path d="M64.2798 30.0093H60.0048V34.2843H64.2798V30.0093Z" fill="#BFFB4F"/>
<path d="M64.2798 12.853H60.0048V17.1562H64.2798V12.853Z" fill="#BFFB4F"/>
<path d="M64.2797 85.7251H25.7203V90.0001H64.2797V85.7251Z" fill="#BFFB4F"/>
<path d="M34.2703 38.5874V42.8624H29.9953V47.1374H25.7203V68.5686H29.9953V72.8718H34.2703V77.1468H55.7016V72.8718H60.0047V68.5686H64.2797V47.1374H60.0047V42.8624H55.7016V38.5874H34.2703ZM55.7016 64.2937H51.4266V68.5686H47.1516V72.8718H42.8485V68.5686H38.5735V64.2937H51.4266V59.9905H38.5735V55.7155H34.2703V51.4405H38.5735V47.1374H42.8485V42.8624H47.1516V47.1374H51.4266V51.4405H38.5735V55.7155H51.4266V59.9905H55.7016V64.2937Z" fill="#BFFB4F"/>
<path d="M60.0047 25.7063H55.7015V30.0094H60.0047V25.7063Z" fill="#BFFB4F"/>
<path d="M60.0047 17.1562H55.7015V21.4313H60.0047V17.1562Z" fill="#BFFB4F"/>
<path d="M60.0047 4.2749H55.7015V8.57803H60.0047V4.2749Z" fill="#BFFB4F"/>
<path d="M55.7016 8.57812H51.4266V12.8531H55.7016V8.57812Z" fill="#BFFB4F"/>
<path d="M51.4266 4.2749H47.1516V8.57803H51.4266V4.2749Z" fill="#BFFB4F"/>
<path d="M47.1516 0H42.8485V4.275H47.1516V0Z" fill="#BFFB4F"/>
<path d="M55.7016 21.4312H34.2704V25.7062H55.7016V21.4312Z" fill="#BFFB4F"/>
<path d="M42.8485 4.2749H38.5735V8.57803H42.8485V4.2749Z" fill="#BFFB4F"/>
<path d="M38.5735 8.57812H34.2704V12.8531H38.5735V8.57812Z" fill="#BFFB4F"/>
<path d="M34.2704 25.7063H29.9954V30.0094H34.2704V25.7063Z" fill="#BFFB4F"/>
<path d="M34.2704 17.1562H29.9954V21.4313H34.2704V17.1562Z" fill="#BFFB4F"/>
<path d="M34.2704 4.2749H29.9954V8.57803H34.2704V4.2749Z" fill="#BFFB4F"/>
<path d="M29.9953 30.0093H25.7203V34.2843H29.9953V30.0093Z" fill="#BFFB4F"/>
<path d="M29.9953 12.853H25.7203V17.1562H29.9953V12.853Z" fill="#BFFB4F"/>
<path d="M25.7203 81.4219H17.1422V85.725H25.7203V81.4219Z" fill="#BFFB4F"/>
<path d="M25.7204 34.2844H21.4172V38.5876H25.7204V34.2844Z" fill="#BFFB4F"/>
<path d="M29.9954 4.275V0H21.4172V12.8531H25.7204V4.275H29.9954Z" fill="#BFFB4F"/>
<path d="M21.4172 38.5874H17.1422V42.8624H21.4172V38.5874Z" fill="#BFFB4F"/>
<path d="M17.1422 72.8718H12.8672V81.4218H17.1422V72.8718Z" fill="#BFFB4F"/>
<path d="M17.1422 42.8625H12.8672V51.4407H17.1422V42.8625Z" fill="#BFFB4F"/>
<path d="M12.8672 51.4407H8.56409V72.8719H12.8672V51.4407Z" fill="#BFFB4F"/>
</g>
<defs>
<clipPath id="clip0_3_260">
<rect width="90" height="90" fill="white"/>
</clipPath>
</defs>
</svg>
