<svg width="85" height="85" viewBox="0 0 85 85" fill="none" xmlns="http://www.w3.org/2000/svg">
<path d="M59.5113 40.0058V44.9942H51.0057V50.0154H25.517V55.0038H38.2613V59.9923H42.5002V65.0135H46.7669V70.0019H63.7501V74.9903H68.0168V80.0116H72.2557V85H76.4945V65.0135H80.7612V59.9923H85V40.0058H80.7612V34.9845H76.4945V29.9961H68.0168V14.998H63.7501V40.0058H59.5113Z" fill="#BFFB4F"/>
<path d="M63.7497 9.97681H59.5109V14.998H63.7497V9.97681Z" fill="#BFFB4F"/>
<path d="M55.2441 25.0078H46.7665V34.9846H55.2441V25.0078Z" fill="#BFFB4F"/>
<path d="M59.5112 4.98853H51.0056V9.97694H59.5112V4.98853Z" fill="#BFFB4F"/>
<path d="M38.2607 25.0078H29.7551V34.9846H38.2607V25.0078Z" fill="#BFFB4F"/>
<path d="M25.5167 55.0039H21.25V59.9923H25.5167V55.0039Z" fill="#BFFB4F"/>
<path d="M51.0052 0H17.0109V4.98842H51.0052V0Z" fill="#BFFB4F"/>
<path d="M17.0115 50.0154H12.7727V70.0019H17.0115V65.0134H21.2504V59.9922H17.0115V50.0154Z" fill="#BFFB4F"/>
<path d="M21.2504 25.0078H12.7727V34.9846H21.2504V25.0078Z" fill="#BFFB4F"/>
<path d="M17.0112 4.98853H8.50562V9.97694H17.0112V4.98853Z" fill="#BFFB4F"/>
<path d="M12.7723 44.9941H8.50562V50.0154H12.7723V44.9941Z" fill="#BFFB4F"/>
<path d="M8.50531 40.0059H4.26648V44.9943H8.50531V40.0059Z" fill="#BFFB4F"/>
<path d="M8.50531 9.97681H4.26648V14.998H8.50531V9.97681Z" fill="#BFFB4F"/>
<path d="M4.26672 14.998H0V40.0058H4.26672V14.998Z" fill="#BFFB4F"/>
</svg>
