<svg width="85" height="85" viewBox="0 0 85 85" fill="none" xmlns="http://www.w3.org/2000/svg">
<path d="M52.62 80.7598H20.2404V85H52.62V80.7598Z" fill="#BFFB4F"/>
<path d="M64.7595 76.5195H52.6205V80.7598H64.7595V76.5195Z" fill="#BFFB4F"/>
<path d="M40.4813 72.2515V68.0112H12.1392V72.2515H16.2032V80.7598H20.2407V72.2515H40.4813Z" fill="#BFFB4F"/>
<path d="M32.3795 59.5027V55.2625H4.06384V59.5027H8.10134V68.0111H12.1388V59.5027H32.3795Z" fill="#BFFB4F"/>
<path d="M4.06406 46.7542H0V55.2625H4.06406V46.7542Z" fill="#BFFB4F"/>
<path d="M48.5827 42.5139H44.5187V46.7542H48.5827V42.5139Z" fill="#BFFB4F"/>
<path d="M28.3423 42.5139H12.1392V46.7542H28.3423V42.5139Z" fill="#BFFB4F"/>
<path d="M44.5188 34.0056H40.4813V42.514H44.5188V34.0056Z" fill="#BFFB4F"/>
<path d="M32.3797 38.2458H28.3422V42.514H32.3797V38.2458Z" fill="#BFFB4F"/>
<path d="M12.1388 38.2458H8.10132V42.514H12.1388V38.2458Z" fill="#BFFB4F"/>
<path d="M20.2407 38.2457V34.0054H24.2782V29.7373H12.1392V34.0054H16.2032V38.2457H20.2407Z" fill="#BFFB4F"/>
<path d="M8.10134 34.0056H4.06384V38.2459H8.10134V34.0056Z" fill="#BFFB4F"/>
<path d="M40.4815 25.4971H36.444V34.0054H40.4815V25.4971Z" fill="#BFFB4F"/>
<path d="M4.06406 12.7485H0V34.0055H4.06406V12.7485Z" fill="#BFFB4F"/>
<path d="M72.8612 25.4832V29.7234H68.8237V33.9915H72.8612V72.2373H64.7596V76.5334H72.8612V80.7736H85.0003V25.4832H72.8612ZM80.9628 72.2373H76.8987V63.729H80.9628V72.2373Z" fill="#BFFB4F"/>
<path d="M68.8237 25.4971H64.7596V29.7373H68.8237V25.4971Z" fill="#BFFB4F"/>
<path d="M28.3424 25.4971H24.2783V29.7373H28.3424V25.4971Z" fill="#BFFB4F"/>
<path d="M64.7593 21.2568H56.6843V25.4971H64.7593V21.2568Z" fill="#BFFB4F"/>
<path d="M36.4436 21.2568H32.3795V25.4971H36.4436V21.2568Z" fill="#BFFB4F"/>
<path d="M24.2782 21.2568H12.1392V25.4971H24.2782V21.2568Z" fill="#BFFB4F"/>
<path d="M56.6845 16.9888H52.6205V21.2569H56.6845V16.9888Z" fill="#BFFB4F"/>
<path d="M12.1388 16.9888H8.10132V21.2569H12.1388V16.9888Z" fill="#BFFB4F"/>
<path d="M52.6206 12.7485H48.5831V16.9888H52.6206V12.7485Z" fill="#BFFB4F"/>
<path d="M24.2782 16.9888V12.7485H20.2407V8.5083H16.2032V12.7485H12.1392V16.9888H24.2782Z" fill="#BFFB4F"/>
<path d="M48.5827 8.5083H44.5187V12.7485H48.5827V8.5083Z" fill="#BFFB4F"/>
<path d="M32.3797 8.5083H28.3422V21.2569H32.3797V8.5083Z" fill="#BFFB4F"/>
<path d="M8.10134 8.5083H4.06384V12.7485H8.10134V8.5083Z" fill="#BFFB4F"/>
<path d="M44.5186 4.24023H32.3795V8.50837H44.5186V4.24023Z" fill="#BFFB4F"/>
<path d="M12.1388 4.24023H8.10132V8.50837H12.1388V4.24023Z" fill="#BFFB4F"/>
<path d="M28.3423 0H12.1392V4.24024H28.3423V0Z" fill="#BFFB4F"/>
</svg>
