<svg width="95" height="86" viewBox="0 0 95 86" fill="none" xmlns="http://www.w3.org/2000/svg">
<path d="M94.368 49.4253H89.8855V53.9373H94.368V49.4253Z" fill="#BFFB4F"/>
<path d="M89.8855 44.9426H80.8911V49.4251H89.8855V44.9426Z" fill="#BFFB4F"/>
<path d="M85.3736 35.9482H80.8911V40.4602H85.3736V35.9482Z" fill="#BFFB4F"/>
<path d="M67.414 40.4602V31.4658H62.9316V26.9538H58.4196V17.9889H62.9316V13.4769H80.891V17.9889H85.3734V35.9483H89.8854V8.99444H85.3734V4.48247H80.891V0H62.9316V4.48247H58.4196V8.99444H53.9371V22.4714H40.4602V8.99444H35.9483V4.48247H31.4658V0H13.4769V4.48247H8.99444V8.99444H4.51196V35.9483H8.99444V17.9889H13.4769V13.4769H31.4658V17.9889H35.9483V26.9538H31.4658V31.4658H26.9833V40.4602H13.4769V44.9427H26.9833V62.9021H31.4658V40.4602H35.9483V35.9483H58.4196V40.4602H62.9316V62.9021H67.414V44.9427H80.891V40.4602H67.414Z" fill="#BFFB4F"/>
<path d="M76.4085 80.8909H71.8965V85.3733H76.4085V80.8909Z" fill="#BFFB4F"/>
<path d="M71.8965 76.4084H67.4141V80.8909H71.8965V76.4084Z" fill="#BFFB4F"/>
<path d="M67.4141 71.8965H58.4197V76.4084H67.4141V71.8965Z" fill="#BFFB4F"/>
<path d="M62.9316 62.9021H58.4197V67.4141H62.9316V62.9021Z" fill="#BFFB4F"/>
<path d="M58.4197 44.9426H53.9373V53.9371H58.4197V44.9426Z" fill="#BFFB4F"/>
<path d="M58.4196 67.4138H35.9482V71.8963H58.4196V67.4138Z" fill="#BFFB4F"/>
<path d="M53.9371 58.4197H40.4602V62.9022H53.9371V58.4197Z" fill="#BFFB4F"/>
<path d="M40.4602 44.9426H35.9482V53.9371H40.4602V44.9426Z" fill="#BFFB4F"/>
<path d="M35.9483 62.9021H31.4658V67.4141H35.9483V62.9021Z" fill="#BFFB4F"/>
<path d="M35.9483 71.8965H26.9834V76.4084H35.9483V71.8965Z" fill="#BFFB4F"/>
<path d="M26.9834 76.4084H22.4714V80.8909H26.9834V76.4084Z" fill="#BFFB4F"/>
<path d="M22.4712 80.8909H17.9888V85.3733H22.4712V80.8909Z" fill="#BFFB4F"/>
<path d="M13.4773 35.9482H8.99487V40.4602H13.4773V35.9482Z" fill="#BFFB4F"/>
<path d="M13.4769 44.9426H4.51196V49.4251H13.4769V44.9426Z" fill="#BFFB4F"/>
<path d="M4.51196 49.4253H0V53.9373H4.51196V49.4253Z" fill="#BFFB4F"/>
</svg>
