<svg width="85" height="85" viewBox="0 0 85 85" fill="none" xmlns="http://www.w3.org/2000/svg">
<g clip-path="url(#clip0_3_177)">
<path d="M85.0001 16.2031H80.936V20.2406H85.0001V16.2031Z" fill="#BFFB4F"/>
<path d="M76.8983 40.4812V44.5187H72.8608V48.5828H76.8983V52.6203H72.8608V56.6578H76.8983V60.7218H72.8608V64.7593H80.9358V32.3796H76.8983V36.4171H72.8608V40.4812H76.8983Z" fill="#BFFB4F"/>
<path d="M80.9359 12.1392H68.7969V16.2032H80.9359V12.1392Z" fill="#BFFB4F"/>
<path d="M68.7969 20.2407V24.2782H72.8609V28.3423H76.8984V24.2782H80.9359V20.2407H68.7969Z" fill="#BFFB4F"/>
<path d="M80.9359 8.10156V4.0375H76.8984V0H72.8609V4.0375H68.7969V8.10156H80.9359Z" fill="#BFFB4F"/>
<path d="M72.8608 32.3796H64.7593V36.4171H72.8608V32.3796Z" fill="#BFFB4F"/>
<path d="M28.3156 40.4812H36.4171V44.5187H40.4812V48.5828H48.5562V52.6203H40.4812V56.6578H48.5562V60.7218H40.4812V64.7593H48.5562V68.8234H40.4812V72.8609H48.5562V76.8984H56.6578V72.8609H64.7593V68.8234H72.8609V64.7593H64.7593V60.7218H72.8609V56.6578H64.7593V52.6203H72.8609V48.5828H64.7593V44.5187H72.8609V40.4812H64.7593V36.4171H56.6578V32.3796H48.5562V28.3421H40.4812V24.2781H32.3796V28.3421H24.2781V32.3796H16.1765V36.4171H28.3156V40.4812Z" fill="#BFFB4F"/>
<path d="M68.7968 8.10156H64.7593V12.1391H68.7968V8.10156Z" fill="#BFFB4F"/>
<path d="M64.7593 20.2407H56.6577V24.2782H64.7593V20.2407Z" fill="#BFFB4F"/>
<path d="M56.6577 16.2031H48.5562V20.2406H56.6577V16.2031Z" fill="#BFFB4F"/>
<path d="M48.5562 20.2407H40.4812V24.2782H48.5562V20.2407Z" fill="#BFFB4F"/>
<path d="M48.5562 76.8984H40.4812V80.9625H48.5562V76.8984Z" fill="#BFFB4F"/>
<path d="M40.4813 12.1392H36.4172V16.2032H40.4813V12.1392Z" fill="#BFFB4F"/>
<path d="M36.4171 76.8984H40.4812V72.8609H36.4171V68.8234H40.4812V64.7593H36.4171V60.7218H40.4812V56.6578H36.4171V52.6203H40.4812V48.5828H32.3796V52.6203H24.2781V56.6578H32.3796V60.7218H24.2781V64.7593H32.3796V68.8234H24.2781V72.8609H32.3796V76.8984H24.2781V80.9625H32.3796V85H40.4812V80.9625H36.4171V76.8984Z" fill="#BFFB4F"/>
<path d="M36.4172 0H28.3157V4.0375H36.4172V0Z" fill="#BFFB4F"/>
<path d="M36.4172 16.2031H28.3157V20.2406H36.4172V16.2031Z" fill="#BFFB4F"/>
<path d="M36.4172 8.10156H28.3157V12.1391H36.4172V8.10156Z" fill="#BFFB4F"/>
<path d="M28.3156 4.0376H24.2781V8.10166H28.3156V4.0376Z" fill="#BFFB4F"/>
<path d="M24.2781 72.8608H16.1765V76.8983H24.2781V72.8608Z" fill="#BFFB4F"/>
<path d="M24.2781 48.5828H16.1765V52.6203H24.2781V48.5828Z" fill="#BFFB4F"/>
<path d="M24.2781 64.7593H16.1765V68.8233H24.2781V64.7593Z" fill="#BFFB4F"/>
<path d="M24.2781 56.6577H16.1765V60.7218H24.2781V56.6577Z" fill="#BFFB4F"/>
<path d="M20.2406 16.2031H16.1765V20.2406H20.2406V16.2031Z" fill="#BFFB4F"/>
<path d="M16.1765 68.8235H8.07495V72.861H16.1765V68.8235Z" fill="#BFFB4F"/>
<path d="M16.1765 60.7219H8.07495V64.7594H16.1765V60.7219Z" fill="#BFFB4F"/>
<path d="M16.1765 52.6204H8.07495V56.6579H16.1765V52.6204Z" fill="#BFFB4F"/>
<path d="M16.1765 44.5188H8.07495V48.5829H16.1765V44.5188Z" fill="#BFFB4F"/>
<path d="M16.1765 36.4172H8.07495V40.4813H16.1765V36.4172Z" fill="#BFFB4F"/>
<path d="M4.0376 20.2407V24.2782H8.0751V28.3423H12.1392V24.2782H16.1767V20.2407H4.0376Z" fill="#BFFB4F"/>
<path d="M16.1767 8.10156V4.0375H12.1392V0H8.0751V4.0375H4.0376V8.10156H16.1767Z" fill="#BFFB4F"/>
<path d="M8.075 64.7593H4.0375V60.7218H8.075V56.6578H4.0375V52.6203H8.075V48.5828H4.0375V44.5187H8.075V40.4812H0V68.8234H8.075V64.7593Z" fill="#BFFB4F"/>
<path d="M16.1767 12.1392H4.0376V16.2032H16.1767V12.1392Z" fill="#BFFB4F"/>
<path d="M4.0375 8.10156H0V12.1391H4.0375V8.10156Z" fill="#BFFB4F"/>
</g>
<defs>
<clipPath id="clip0_3_177">
<rect width="85" height="85" fill="white"/>
</clipPath>
</defs>
</svg>
