<svg width="85" height="85" viewBox="0 0 85 85" fill="none" xmlns="http://www.w3.org/2000/svg">
<path d="M78.9305 28.3157H74.8665V60.6954H78.9305V28.3157Z" fill="#BFFB4F"/>
<path d="M74.8665 60.6953H70.829V68.7969H74.8665V60.6953Z" fill="#BFFB4F"/>
<path d="M74.8665 24.2781H70.829V28.3156H74.8665V24.2781Z" fill="#BFFB4F"/>
<path d="M70.829 68.7969H66.7649V72.8609H70.829V68.7969Z" fill="#BFFB4F"/>
<path d="M70.829 20.2407H66.7649V24.2782H70.829V20.2407Z" fill="#BFFB4F"/>
<path d="M66.7649 72.8608H62.7274V76.8983H66.7649V72.8608Z" fill="#BFFB4F"/>
<path d="M66.7649 16.1765H62.7274V20.2406H66.7649V16.1765Z" fill="#BFFB4F"/>
<path d="M62.7274 76.8984H58.6899V80.9359H62.7274V76.8984Z" fill="#BFFB4F"/>
<path d="M62.7274 12.1392H58.6899V16.1767H62.7274V12.1392Z" fill="#BFFB4F"/>
<path d="M58.6899 8.07495H54.6259V12.139H58.6899V8.07495Z" fill="#BFFB4F"/>
<path d="M58.6899 80.936H26.3102V85.0001H58.6899V80.936Z" fill="#BFFB4F"/>
<path d="M54.6258 4.0376H46.5508V8.0751H54.6258V4.0376Z" fill="#BFFB4F"/>
<path d="M42.4867 24.2781H38.4492V40.4546H42.4867V24.2781Z" fill="#BFFB4F"/>
<path d="M38.4493 12.1392H34.3853V24.2782H38.4493V12.1392Z" fill="#BFFB4F"/>
<path d="M34.3852 8.07495H30.3477V12.139H34.3852V8.07495Z" fill="#BFFB4F"/>
<path d="M46.5508 4.0375V0H22.2461V4.0375H26.3102V8.075H30.3477V4.0375H46.5508Z" fill="#BFFB4F"/>
<path d="M38.4492 40.4546H26.3102V44.5187H38.4492V40.4546Z" fill="#BFFB4F"/>
<path d="M26.3102 76.8984H22.2461V80.9359H26.3102V76.8984Z" fill="#BFFB4F"/>
<path d="M26.3102 36.4172H22.2461V40.4547H26.3102V36.4172Z" fill="#BFFB4F"/>
<path d="M22.2461 72.8608H14.1711V76.8983H22.2461V72.8608Z" fill="#BFFB4F"/>
<path d="M22.2461 28.3157H18.2086V32.3797H14.1711V36.4172H22.2461V28.3157Z" fill="#BFFB4F"/>
<path d="M14.1711 68.7969H10.1071V72.8609H14.1711V68.7969Z" fill="#BFFB4F"/>
<path d="M14.1711 36.4172H10.1071V48.5563H14.1711V36.4172Z" fill="#BFFB4F"/>
<path d="M10.1071 48.5562H6.06958V68.7968H10.1071V48.5562Z" fill="#BFFB4F"/>
</svg>
